<svg width="225" height="795" viewBox="0 0 225 795" fill="none" xmlns="http://www.w3.org/2000/svg">
<rect width="225" height="795" fill="#FCD5B4"/>
<path d="M130 505.341V509.773L95.0909 496.955V492.591L130 479.773V484.205L100.614 494.636V494.909L130 505.341ZM116.364 503.705V485.841H120.114V503.705H116.364ZM103.818 463.222H107.227V477.335H103.818V463.222ZM130 473.108H100.205C98.7045 473.108 97.4545 472.756 96.4545 472.051C95.4545 471.347 94.7045 470.432 94.2045 469.307C93.7045 468.182 93.4545 466.994 93.4545 465.744C93.4545 464.756 93.5341 463.949 93.6932 463.324C93.8523 462.699 94 462.233 94.1364 461.926L97.6136 463.085C97.5455 463.29 97.4602 463.574 97.358 463.938C97.2557 464.29 97.2045 464.756 97.2045 465.335C97.2045 466.665 97.5398 467.625 98.2102 468.216C98.8807 468.795 99.8636 469.085 101.159 469.085H130V473.108ZM103.818 446.197H107.227L107.227 459.766H103.818L103.818 446.197ZM97.5455 455.811V451.788H122.5C123.636 451.788 124.489 451.624 125.057 451.294C125.614 450.953 125.989 450.521 126.182 449.999C126.364 449.464 126.455 448.902 126.455 448.311C126.455 447.868 126.432 447.504 126.386 447.22C126.33 446.936 126.284 446.709 126.25 446.538L129.864 445.72C129.966 445.993 130.068 446.374 130.17 446.862C130.284 447.351 130.341 447.97 130.341 448.72C130.341 449.857 130.097 450.97 129.608 452.061C129.119 453.141 128.375 454.038 127.375 454.754C126.375 455.459 125.114 455.811 123.591 455.811H97.5455ZM130.545 429.45C130.545 431.973 129.989 434.149 128.875 435.979C127.75 437.797 126.182 439.2 124.17 440.189C122.148 441.166 119.795 441.655 117.114 441.655C114.432 441.655 112.068 441.166 110.023 440.189C107.966 439.2 106.364 437.825 105.216 436.064C104.057 434.291 103.477 432.223 103.477 429.859C103.477 428.496 103.705 427.149 104.159 425.82C104.614 424.49 105.352 423.28 106.375 422.189C107.386 421.098 108.727 420.229 110.398 419.581C112.068 418.933 114.125 418.609 116.568 418.609H118.273V438.791H114.795V422.7C113.318 422.7 112 422.996 110.841 423.587C109.682 424.166 108.767 424.996 108.097 426.075C107.426 427.143 107.091 428.405 107.091 429.859C107.091 431.462 107.489 432.848 108.284 434.018C109.068 435.178 110.091 436.07 111.352 436.695C112.614 437.32 113.966 437.632 115.409 437.632H117.727C119.705 437.632 121.381 437.291 122.756 436.609C124.119 435.916 125.159 434.956 125.875 433.729C126.58 432.501 126.932 431.075 126.932 429.45C126.932 428.393 126.784 427.439 126.489 426.587C126.182 425.723 125.727 424.979 125.125 424.354C124.511 423.729 123.75 423.246 122.841 422.905L123.932 419.018C125.25 419.428 126.409 420.115 127.409 421.081C128.398 422.047 129.17 423.24 129.727 424.661C130.273 426.081 130.545 427.678 130.545 429.45ZM130 412.49H103.818V408.604H107.773V408.331C106.477 407.854 105.426 406.99 104.619 405.74C103.812 404.49 103.409 403.081 103.409 401.513C103.409 401.217 103.415 400.848 103.426 400.405C103.437 399.962 103.455 399.626 103.477 399.399H107.568C107.534 399.536 107.483 399.848 107.415 400.337C107.335 400.814 107.295 401.32 107.295 401.854C107.295 403.126 107.562 404.263 108.097 405.263C108.619 406.251 109.347 407.036 110.278 407.615C111.199 408.183 112.25 408.467 113.432 408.467H130V412.49ZM114.25 390.608H130V394.631H103.818V390.744H107.909V390.403C106.58 389.79 105.511 388.858 104.705 387.608C103.886 386.358 103.477 384.744 103.477 382.767C103.477 380.994 103.841 379.443 104.568 378.114C105.284 376.784 106.375 375.75 107.841 375.011C109.295 374.273 111.136 373.903 113.364 373.903H130V377.926H113.636C111.58 377.926 109.977 378.46 108.83 379.528C107.67 380.597 107.091 382.062 107.091 383.926C107.091 385.21 107.369 386.358 107.926 387.369C108.483 388.369 109.295 389.159 110.364 389.739C111.432 390.318 112.727 390.608 114.25 390.608ZM130.545 355.916C130.545 358.28 129.983 360.354 128.858 362.138C127.733 363.911 126.159 365.297 124.136 366.297C122.114 367.286 119.75 367.78 117.045 367.78C114.318 367.78 111.937 367.286 109.903 366.297C107.869 365.297 106.29 363.911 105.165 362.138C104.04 360.354 103.477 358.28 103.477 355.916C103.477 353.553 104.04 351.484 105.165 349.712C106.29 347.928 107.869 346.541 109.903 345.553C111.937 344.553 114.318 344.053 117.045 344.053C119.75 344.053 122.114 344.553 124.136 345.553C126.159 346.541 127.733 347.928 128.858 349.712C129.983 351.484 130.545 353.553 130.545 355.916ZM126.932 355.916C126.932 354.121 126.472 352.643 125.551 351.484C124.631 350.325 123.42 349.467 121.92 348.911C120.42 348.354 118.795 348.075 117.045 348.075C115.295 348.075 113.665 348.354 112.153 348.911C110.642 349.467 109.42 350.325 108.489 351.484C107.557 352.643 107.091 354.121 107.091 355.916C107.091 357.712 107.557 359.189 108.489 360.348C109.42 361.507 110.642 362.365 112.153 362.922C113.665 363.479 115.295 363.757 117.045 363.757C118.795 363.757 120.42 363.479 121.92 362.922C123.42 362.365 124.631 361.507 125.551 360.348C126.472 359.189 126.932 357.712 126.932 355.916ZM130.545 327.276C130.545 329.639 129.983 331.713 128.858 333.497C127.733 335.27 126.159 336.656 124.136 337.656C122.114 338.645 119.75 339.139 117.045 339.139C114.318 339.139 111.937 338.645 109.903 337.656C107.869 336.656 106.29 335.27 105.165 333.497C104.04 331.713 103.477 329.639 103.477 327.276C103.477 324.912 104.04 322.844 105.165 321.071C106.29 319.287 107.869 317.901 109.903 316.912C111.937 315.912 114.318 315.412 117.045 315.412C119.75 315.412 122.114 315.912 124.136 316.912C126.159 317.901 127.733 319.287 128.858 321.071C129.983 322.844 130.545 324.912 130.545 327.276ZM126.932 327.276C126.932 325.48 126.472 324.003 125.551 322.844C124.631 321.685 123.42 320.827 121.92 320.27C120.42 319.713 118.795 319.435 117.045 319.435C115.295 319.435 113.665 319.713 112.153 320.27C110.642 320.827 109.42 321.685 108.489 322.844C107.557 324.003 107.091 325.48 107.091 327.276C107.091 329.071 107.557 330.548 108.489 331.707C109.42 332.866 110.642 333.724 112.153 334.281C113.665 334.838 115.295 335.116 117.045 335.116C118.795 335.116 120.42 334.838 121.92 334.281C123.42 333.724 124.631 332.866 125.551 331.707C126.472 330.548 126.932 329.071 126.932 327.276ZM114.25 305.249H130V309.271H103.818V305.385H107.909V305.044C106.58 304.43 105.511 303.499 104.705 302.249C103.886 300.999 103.477 299.385 103.477 297.408C103.477 295.635 103.841 294.084 104.568 292.754C105.284 291.425 106.375 290.391 107.841 289.652C109.295 288.913 111.136 288.544 113.364 288.544H130V292.567H113.636C111.58 292.567 109.977 293.101 108.83 294.169C107.67 295.237 107.091 296.703 107.091 298.567C107.091 299.851 107.369 300.999 107.926 302.01C108.483 303.01 109.295 303.8 110.364 304.379C111.432 304.959 112.727 305.249 114.25 305.249Z" fill="black"/>
</svg>
