<svg width="225" height="795" viewBox="0 0 225 795" fill="none" xmlns="http://www.w3.org/2000/svg">
<rect width="225" height="795" fill="#A6A6A6"/>
<path d="M102.818 585.682C101.091 585.886 99.75 586.716 98.7955 588.17C97.8409 589.625 97.3636 591.409 97.3636 593.523C97.3636 595.068 97.6136 596.42 98.1136 597.58C98.6136 598.727 99.3011 599.625 100.176 600.273C101.051 600.909 102.045 601.227 103.159 601.227C104.091 601.227 104.892 601.006 105.562 600.562C106.222 600.108 106.773 599.528 107.216 598.824C107.648 598.119 108.006 597.381 108.29 596.608C108.562 595.835 108.784 595.125 108.955 594.477L109.909 590.932C110.148 590.023 110.477 589.011 110.898 587.898C111.318 586.773 111.892 585.699 112.619 584.676C113.335 583.642 114.256 582.79 115.381 582.119C116.506 581.449 117.886 581.114 119.523 581.114C121.409 581.114 123.114 581.608 124.636 582.597C126.159 583.574 127.369 585.006 128.267 586.892C129.165 588.767 129.614 591.045 129.614 593.727C129.614 596.227 129.21 598.392 128.403 600.222C127.597 602.04 126.472 603.472 125.028 604.517C123.585 605.551 121.909 606.136 120 606.273V601.909C121.318 601.795 122.409 601.352 123.273 600.58C124.125 599.795 124.761 598.807 125.182 597.614C125.591 596.409 125.795 595.114 125.795 593.727C125.795 592.114 125.534 590.665 125.011 589.381C124.477 588.097 123.739 587.08 122.795 586.33C121.841 585.58 120.727 585.205 119.455 585.205C118.295 585.205 117.352 585.528 116.625 586.176C115.898 586.824 115.307 587.676 114.852 588.733C114.398 589.79 114 590.932 113.659 592.159L112.432 596.455C111.648 599.182 110.528 601.341 109.074 602.932C107.619 604.523 105.716 605.318 103.364 605.318C101.409 605.318 99.7045 604.79 98.25 603.733C96.7841 602.665 95.6477 601.233 94.8409 599.438C94.0227 597.631 93.6136 595.614 93.6136 593.386C93.6136 591.136 94.017 589.136 94.8239 587.386C95.6193 585.636 96.7102 584.25 98.0966 583.227C99.483 582.193 101.057 581.648 102.818 581.591V585.682ZM94.0909 570.686H129V574.709H94.0909V570.686ZM129.545 552.341C129.545 554.864 128.989 557.04 127.875 558.869C126.75 560.688 125.182 562.091 123.17 563.08C121.148 564.057 118.795 564.545 116.114 564.545C113.432 564.545 111.068 564.057 109.023 563.08C106.966 562.091 105.364 560.716 104.216 558.955C103.057 557.182 102.477 555.114 102.477 552.75C102.477 551.386 102.705 550.04 103.159 548.71C103.614 547.381 104.352 546.17 105.375 545.08C106.386 543.989 107.727 543.119 109.398 542.472C111.068 541.824 113.125 541.5 115.568 541.5H117.273V561.682H113.795L113.795 545.591C112.318 545.591 111 545.886 109.841 546.477C108.682 547.057 107.767 547.886 107.097 548.966C106.426 550.034 106.091 551.295 106.091 552.75C106.091 554.352 106.489 555.739 107.284 556.909C108.068 558.068 109.091 558.96 110.352 559.585C111.614 560.21 112.966 560.523 114.409 560.523H116.727C118.705 560.523 120.381 560.182 121.756 559.5C123.119 558.807 124.159 557.847 124.875 556.619C125.58 555.392 125.932 553.966 125.932 552.341C125.932 551.284 125.784 550.33 125.489 549.477C125.182 548.614 124.727 547.869 124.125 547.244C123.511 546.619 122.75 546.136 121.841 545.795L122.932 541.909C124.25 542.318 125.409 543.006 126.409 543.972C127.398 544.937 128.17 546.131 128.727 547.551C129.273 548.972 129.545 550.568 129.545 552.341ZM129.545 524.403C129.545 526.926 128.989 529.102 127.875 530.932C126.75 532.75 125.182 534.153 123.17 535.142C121.148 536.119 118.795 536.608 116.114 536.608C113.432 536.608 111.068 536.119 109.023 535.142C106.966 534.153 105.364 532.778 104.216 531.017C103.057 529.244 102.477 527.176 102.477 524.812C102.477 523.449 102.705 522.102 103.159 520.773C103.614 519.443 104.352 518.233 105.375 517.142C106.386 516.051 107.727 515.182 109.398 514.534C111.068 513.886 113.125 513.562 115.568 513.562H117.273V533.744H113.795V517.653C112.318 517.653 111 517.949 109.841 518.54C108.682 519.119 107.767 519.949 107.097 521.028C106.426 522.097 106.091 523.358 106.091 524.812C106.091 526.415 106.489 527.801 107.284 528.972C108.068 530.131 109.091 531.023 110.352 531.648C111.614 532.273 112.966 532.585 114.409 532.585H116.727C118.705 532.585 120.381 532.244 121.756 531.562C123.119 530.869 124.159 529.909 124.875 528.682C125.58 527.455 125.932 526.028 125.932 524.403C125.932 523.347 125.784 522.392 125.489 521.54C125.182 520.676 124.727 519.932 124.125 519.307C123.511 518.682 122.75 518.199 121.841 517.858L122.932 513.972C124.25 514.381 125.409 515.068 126.409 516.034C127.398 517 128.17 518.193 128.727 519.614C129.273 521.034 129.545 522.631 129.545 524.403ZM138.818 507.443H102.818V503.557H106.977V503.08C106.523 502.784 105.943 502.375 105.239 501.852C104.523 501.318 103.886 500.557 103.33 499.568C102.761 498.568 102.477 497.216 102.477 495.511C102.477 493.307 103.028 491.364 104.131 489.682C105.233 488 106.795 486.687 108.818 485.744C110.841 484.801 113.227 484.33 115.977 484.33C118.75 484.33 121.153 484.801 123.188 485.744C125.21 486.687 126.778 487.994 127.892 489.665C128.994 491.335 129.545 493.261 129.545 495.443C129.545 497.125 129.267 498.472 128.71 499.483C128.142 500.494 127.5 501.273 126.784 501.818C126.057 502.364 125.455 502.784 124.977 503.08V503.42H138.818V507.443ZM115.909 503.489C117.886 503.489 119.631 503.199 121.142 502.619C122.642 502.04 123.818 501.193 124.67 500.08C125.511 498.966 125.932 497.602 125.932 495.989C125.932 494.307 125.489 492.903 124.602 491.778C123.705 490.642 122.5 489.79 120.989 489.222C119.466 488.642 117.773 488.352 115.909 488.352C114.068 488.352 112.409 488.636 110.932 489.205C109.443 489.761 108.267 490.608 107.403 491.744C106.528 492.869 106.091 494.284 106.091 495.989C106.091 497.625 106.506 499 107.335 500.114C108.153 501.227 109.301 502.068 110.778 502.636C112.244 503.205 113.955 503.489 115.909 503.489ZM129 478.193H102.818V474.17H129V478.193ZM98.4545 476.148C98.4545 476.932 98.1875 477.608 97.6534 478.176C97.1193 478.733 96.4773 479.011 95.7273 479.011C94.9773 479.011 94.3352 478.733 93.8011 478.176C93.267 477.608 93 476.932 93 476.148C93 475.364 93.267 474.693 93.8011 474.136C94.3352 473.568 94.9773 473.284 95.7273 473.284C96.4773 473.284 97.1193 473.568 97.6534 474.136C98.1875 474.693 98.4545 475.364 98.4545 476.148ZM113.25 462.78H129V466.803H102.818V462.916H106.909V462.575C105.58 461.962 104.511 461.03 103.705 459.78C102.886 458.53 102.477 456.916 102.477 454.939C102.477 453.166 102.841 451.615 103.568 450.286C104.284 448.956 105.375 447.922 106.841 447.183C108.295 446.445 110.136 446.075 112.364 446.075H129V450.098H112.636C110.58 450.098 108.977 450.632 107.83 451.7C106.67 452.768 106.091 454.234 106.091 456.098C106.091 457.382 106.369 458.53 106.926 459.541C107.483 460.541 108.295 461.331 109.364 461.911C110.432 462.49 111.727 462.78 113.25 462.78ZM139.364 428.156C139.364 430.099 139.114 431.77 138.614 433.168C138.125 434.565 137.477 435.73 136.67 436.662C135.875 437.582 135.023 438.315 134.114 438.861L131.864 435.656C132.341 435.293 132.886 434.832 133.5 434.276C134.125 433.719 134.665 432.957 135.119 431.991C135.585 431.014 135.818 429.736 135.818 428.156C135.818 426.043 135.307 424.298 134.284 422.923C133.261 421.548 131.659 420.861 129.477 420.861H124.159V421.202C124.636 421.497 125.227 421.918 125.932 422.463C126.625 422.997 127.244 423.77 127.79 424.781C128.324 425.781 128.591 427.134 128.591 428.838C128.591 430.952 128.091 432.849 127.091 434.531C126.091 436.202 124.636 437.526 122.727 438.503C120.818 439.469 118.5 439.952 115.773 439.952C113.091 439.952 110.756 439.48 108.767 438.537C106.767 437.594 105.222 436.281 104.131 434.599C103.028 432.918 102.477 430.974 102.477 428.77C102.477 427.065 102.761 425.713 103.33 424.713C103.886 423.702 104.523 422.929 105.239 422.395C105.943 421.849 106.523 421.429 106.977 421.134V420.724H102.818V416.838H129.75C132 416.838 133.83 417.349 135.239 418.372C136.659 419.384 137.699 420.747 138.358 422.463C139.028 424.168 139.364 426.065 139.364 428.156ZM124.977 428.293C124.977 426.679 124.608 425.315 123.869 424.202C123.131 423.088 122.068 422.241 120.682 421.662C119.295 421.082 117.636 420.793 115.705 420.793C113.818 420.793 112.153 421.077 110.71 421.645C109.267 422.213 108.136 423.054 107.318 424.168C106.5 425.281 106.091 426.656 106.091 428.293C106.091 429.997 106.523 431.418 107.386 432.554C108.25 433.679 109.409 434.526 110.864 435.094C112.318 435.651 113.932 435.929 115.705 435.929C117.523 435.929 119.131 435.645 120.528 435.077C121.915 434.497 123.006 433.645 123.801 432.52C124.585 431.384 124.977 429.974 124.977 428.293ZM129 395.974H102.818V392.088H106.909V391.747C105.511 391.202 104.426 390.321 103.653 389.105C102.869 387.889 102.477 386.429 102.477 384.724C102.477 382.997 102.869 381.56 103.653 380.412C104.426 379.253 105.511 378.349 106.909 377.702V377.429C105.557 376.759 104.483 375.753 103.688 374.412C102.881 373.071 102.477 371.463 102.477 369.588C102.477 367.247 103.21 365.332 104.676 363.844C106.131 362.355 108.398 361.611 111.477 361.611H129V365.634H111.477C109.545 365.634 108.165 366.162 107.335 367.219C106.506 368.276 106.091 369.52 106.091 370.952C106.091 372.793 106.648 374.219 107.761 375.23C108.864 376.241 110.261 376.747 111.955 376.747H129V380.838H111.068C109.58 380.838 108.381 381.321 107.472 382.287C106.551 383.253 106.091 384.497 106.091 386.02C106.091 387.065 106.369 388.043 106.926 388.952C107.483 389.849 108.256 390.577 109.244 391.134C110.222 391.679 111.352 391.952 112.636 391.952H129V395.974ZM138.818 352.602C138.818 353.284 138.761 353.892 138.648 354.426C138.545 354.96 138.443 355.33 138.341 355.534L134.795 354.511C135.045 353.534 135.136 352.67 135.068 351.92C135 351.17 134.665 350.506 134.063 349.926C133.472 349.335 132.511 348.795 131.182 348.307L129.136 347.557L102.818 357.239V352.875L123.682 345.648V345.375L102.818 338.148V333.784L132.818 344.898C134.17 345.398 135.29 346.017 136.176 346.756C137.074 347.494 137.739 348.352 138.17 349.33C138.602 350.295 138.818 351.386 138.818 352.602ZM102.818 303.315H106.227V317.429H102.818V303.315ZM129 313.202H99.2045C97.7045 313.202 96.4545 312.849 95.4545 312.145C94.4545 311.44 93.7045 310.526 93.2045 309.401C92.7045 308.276 92.4545 307.088 92.4545 305.838C92.4545 304.849 92.5341 304.043 92.6932 303.418C92.8523 302.793 93 302.327 93.1364 302.02L96.6136 303.179C96.5455 303.384 96.4602 303.668 96.358 304.031C96.2557 304.384 96.2045 304.849 96.2045 305.429C96.2045 306.759 96.5398 307.719 97.2102 308.31C97.8807 308.889 98.8636 309.179 100.159 309.179H129V313.202ZM129 297.678H102.818V293.791H106.773V293.518C105.477 293.041 104.426 292.178 103.619 290.928C102.812 289.678 102.409 288.268 102.409 286.7C102.409 286.405 102.415 286.036 102.426 285.592C102.437 285.149 102.455 284.814 102.477 284.587H106.568C106.534 284.723 106.483 285.036 106.415 285.524C106.335 286.001 106.295 286.507 106.295 287.041C106.295 288.314 106.562 289.45 107.097 290.45C107.619 291.439 108.347 292.223 109.278 292.803C110.199 293.371 111.25 293.655 112.432 293.655H129V297.678ZM129 279.818H102.818V275.795H129V279.818ZM98.4545 277.773C98.4545 278.557 98.1875 279.233 97.6534 279.801C97.1193 280.358 96.4773 280.636 95.7273 280.636C94.9773 280.636 94.3352 280.358 93.8011 279.801C93.267 279.233 93 278.557 93 277.773C93 276.989 93.267 276.318 93.8011 275.761C94.3352 275.193 94.9773 274.909 95.7273 274.909C96.4773 274.909 97.1193 275.193 97.6534 275.761C98.1875 276.318 98.4545 276.989 98.4545 277.773ZM129.545 257.45C129.545 259.973 128.989 262.149 127.875 263.979C126.75 265.797 125.182 267.2 123.17 268.189C121.148 269.166 118.795 269.655 116.114 269.655C113.432 269.655 111.068 269.166 109.023 268.189C106.966 267.2 105.364 265.825 104.216 264.064C103.057 262.291 102.477 260.223 102.477 257.859C102.477 256.496 102.705 255.149 103.159 253.82C103.614 252.49 104.352 251.28 105.375 250.189C106.386 249.098 107.727 248.229 109.398 247.581C111.068 246.933 113.125 246.609 115.568 246.609H117.273V266.791H113.795V250.7C112.318 250.7 111 250.996 109.841 251.587C108.682 252.166 107.767 252.996 107.097 254.075C106.426 255.143 106.091 256.405 106.091 257.859C106.091 259.462 106.489 260.848 107.284 262.018C108.068 263.178 109.091 264.07 110.352 264.695C111.614 265.32 112.966 265.632 114.409 265.632H116.727C118.705 265.632 120.381 265.291 121.756 264.609C123.119 263.916 124.159 262.956 124.875 261.729C125.58 260.501 125.932 259.075 125.932 257.45C125.932 256.393 125.784 255.439 125.489 254.587C125.182 253.723 124.727 252.979 124.125 252.354C123.511 251.729 122.75 251.246 121.841 250.905L122.932 247.018C124.25 247.428 125.409 248.115 126.409 249.081C127.398 250.047 128.17 251.24 128.727 252.661C129.273 254.081 129.545 255.678 129.545 257.45ZM113.25 236.467H129V240.49H102.818V236.604H106.909V236.263C105.58 235.649 104.511 234.717 103.705 233.467C102.886 232.217 102.477 230.604 102.477 228.626C102.477 226.854 102.841 225.303 103.568 223.973C104.284 222.643 105.375 221.609 106.841 220.871C108.295 220.132 110.136 219.763 112.364 219.763H129V223.786H112.636C110.58 223.786 108.977 224.32 107.83 225.388C106.67 226.456 106.091 227.922 106.091 229.786C106.091 231.07 106.369 232.217 106.926 233.229C107.483 234.229 108.295 235.018 109.364 235.598C110.432 236.178 111.727 236.467 113.25 236.467ZM129.545 202.526C129.545 204.707 128.994 206.634 127.892 208.304C126.778 209.974 125.21 211.281 123.188 212.224C121.153 213.168 118.75 213.639 115.977 213.639C113.227 213.639 110.841 213.168 108.818 212.224C106.795 211.281 105.233 209.969 104.131 208.287C103.028 206.605 102.477 204.662 102.477 202.457C102.477 200.753 102.761 199.406 103.33 198.418C103.886 197.418 104.523 196.656 105.239 196.134C105.943 195.599 106.523 195.185 106.977 194.889V194.548H94.0909V190.526H129V194.412H124.977V194.889C125.455 195.185 126.057 195.605 126.784 196.151C127.5 196.696 128.142 197.474 128.71 198.486C129.267 199.497 129.545 200.844 129.545 202.526ZM125.932 201.98C125.932 200.366 125.511 199.003 124.67 197.889C123.818 196.776 122.642 195.929 121.142 195.349C119.631 194.77 117.886 194.48 115.909 194.48C113.955 194.48 112.244 194.764 110.778 195.332C109.301 195.901 108.153 196.741 107.335 197.855C106.506 198.969 106.091 200.344 106.091 201.98C106.091 203.685 106.528 205.105 107.403 206.241C108.267 207.366 109.443 208.213 110.932 208.781C112.409 209.338 114.068 209.616 115.909 209.616C117.773 209.616 119.466 209.332 120.989 208.764C122.5 208.185 123.705 207.332 124.602 206.207C125.489 205.071 125.932 203.662 125.932 201.98Z" fill="black"/>
</svg>
