<svg width="225" height="795" viewBox="0 0 225 795" fill="none" xmlns="http://www.w3.org/2000/svg">
<rect width="225" height="795" fill="#C4D79B"/>
<path d="M95.0909 485.773V480.727L124.068 468.864V468.455L95.0909 456.591V451.545H130V455.5H103.477V455.841L130 466.75V470.568L103.477 481.477V481.818H130V485.773H95.0909ZM130.545 432.979C130.545 435.342 129.983 437.416 128.858 439.2C127.733 440.973 126.159 442.359 124.136 443.359C122.114 444.348 119.75 444.842 117.045 444.842C114.318 444.842 111.937 444.348 109.903 443.359C107.869 442.359 106.29 440.973 105.165 439.2C104.04 437.416 103.477 435.342 103.477 432.979C103.477 430.615 104.04 428.547 105.165 426.774C106.29 424.99 107.869 423.604 109.903 422.615C111.937 421.615 114.318 421.115 117.045 421.115C119.75 421.115 122.114 421.615 124.136 422.615C126.159 423.604 127.733 424.99 128.858 426.774C129.983 428.547 130.545 430.615 130.545 432.979ZM126.932 432.979C126.932 431.183 126.472 429.706 125.551 428.547C124.631 427.388 123.42 426.53 121.92 425.973C120.42 425.416 118.795 425.138 117.045 425.138C115.295 425.138 113.665 425.416 112.153 425.973C110.642 426.53 109.42 427.388 108.489 428.547C107.557 429.706 107.091 431.183 107.091 432.979C107.091 434.774 107.557 436.251 108.489 437.411C109.42 438.57 110.642 439.428 112.153 439.984C113.665 440.541 115.295 440.82 117.045 440.82C118.795 440.82 120.42 440.541 121.92 439.984C123.42 439.428 124.631 438.57 125.551 437.411C126.472 436.251 126.932 434.774 126.932 432.979ZM130 414.974H103.818V411.088H107.773V410.815C106.477 410.338 105.426 409.474 104.619 408.224C103.812 406.974 103.409 405.565 103.409 403.997C103.409 403.702 103.415 403.332 103.426 402.889C103.437 402.446 103.455 402.111 103.477 401.884H107.568C107.534 402.02 107.483 402.332 107.415 402.821C107.335 403.298 107.295 403.804 107.295 404.338C107.295 405.611 107.562 406.747 108.097 407.747C108.619 408.736 109.347 409.52 110.278 410.099C111.199 410.668 112.25 410.952 113.432 410.952H130V414.974ZM114.25 393.092H130V397.115H103.818V393.229H107.909V392.888C106.58 392.274 105.511 391.342 104.705 390.092C103.886 388.842 103.477 387.229 103.477 385.251C103.477 383.479 103.841 381.928 104.568 380.598C105.284 379.268 106.375 378.234 107.841 377.496C109.295 376.757 111.136 376.388 113.364 376.388H130V380.411H113.636C111.58 380.411 109.977 380.945 108.83 382.013C107.67 383.081 107.091 384.547 107.091 386.411C107.091 387.695 107.369 388.842 107.926 389.854C108.483 390.854 109.295 391.643 110.364 392.223C111.432 392.803 112.727 393.092 114.25 393.092ZM130 369.037H103.818V365.014H130V369.037ZM99.4545 366.991C99.4545 367.776 99.1875 368.452 98.6534 369.02C98.1193 369.577 97.4773 369.855 96.7273 369.855C95.9773 369.855 95.3352 369.577 94.8011 369.02C94.267 368.452 94 367.776 94 366.991C94 366.207 94.267 365.537 94.8011 364.98C95.3352 364.412 95.9773 364.128 96.7273 364.128C97.4773 364.128 98.1193 364.412 98.6534 364.98C99.1875 365.537 99.4545 366.207 99.4545 366.991ZM114.25 353.624H130V357.646H103.818V353.76H107.909V353.419C106.58 352.805 105.511 351.874 104.705 350.624C103.886 349.374 103.477 347.76 103.477 345.783C103.477 344.01 103.841 342.459 104.568 341.129C105.284 339.8 106.375 338.766 107.841 338.027C109.295 337.288 111.136 336.919 113.364 336.919H130V340.942H113.636C111.58 340.942 109.977 341.476 108.83 342.544C107.67 343.612 107.091 345.078 107.091 346.942C107.091 348.226 107.369 349.374 107.926 350.385C108.483 351.385 109.295 352.175 110.364 352.754C111.432 353.334 112.727 353.624 114.25 353.624ZM140.364 319C140.364 320.943 140.114 322.614 139.614 324.011C139.125 325.409 138.477 326.574 137.67 327.506C136.875 328.426 136.023 329.159 135.114 329.705L132.864 326.5C133.341 326.136 133.886 325.676 134.5 325.119C135.125 324.562 135.665 323.801 136.119 322.835C136.585 321.858 136.818 320.58 136.818 319C136.818 316.886 136.307 315.142 135.284 313.767C134.261 312.392 132.659 311.705 130.477 311.705H125.159V312.045C125.636 312.341 126.227 312.761 126.932 313.307C127.625 313.841 128.244 314.614 128.79 315.625C129.324 316.625 129.591 317.977 129.591 319.682C129.591 321.795 129.091 323.693 128.091 325.375C127.091 327.045 125.636 328.369 123.727 329.347C121.818 330.312 119.5 330.795 116.773 330.795C114.091 330.795 111.756 330.324 109.767 329.381C107.767 328.437 106.222 327.125 105.131 325.443C104.028 323.761 103.477 321.818 103.477 319.614C103.477 317.909 103.761 316.557 104.33 315.557C104.886 314.545 105.523 313.773 106.239 313.239C106.943 312.693 107.523 312.273 107.977 311.977V311.568H103.818V307.682H130.75C133 307.682 134.83 308.193 136.239 309.216C137.659 310.227 138.699 311.591 139.358 313.307C140.028 315.011 140.364 316.909 140.364 319ZM125.977 319.136C125.977 317.523 125.608 316.159 124.869 315.045C124.131 313.932 123.068 313.085 121.682 312.506C120.295 311.926 118.636 311.636 116.705 311.636C114.818 311.636 113.153 311.92 111.71 312.489C110.267 313.057 109.136 313.898 108.318 315.011C107.5 316.125 107.091 317.5 107.091 319.136C107.091 320.841 107.523 322.261 108.386 323.398C109.25 324.523 110.409 325.369 111.864 325.938C113.318 326.494 114.932 326.773 116.705 326.773C118.523 326.773 120.131 326.489 121.528 325.92C122.915 325.341 124.006 324.489 124.801 323.364C125.585 322.227 125.977 320.818 125.977 319.136Z" fill="black"/>
</svg>
