<svg width="225" height="795" viewBox="0 0 225 795" fill="none" xmlns="http://www.w3.org/2000/svg">
<rect width="225" height="795" fill="#DA9694"/>
<path d="M95.0909 426.091H130V430.182L102.591 449.205V449.545H130V453.773H95.0909V449.682L122.568 430.591V430.25H95.0909V426.091ZM130 418.178H103.818V414.155H130V418.178ZM99.4545 416.132C99.4545 416.916 99.1875 417.592 98.6534 418.161C98.1193 418.717 97.4773 418.996 96.7273 418.996C95.9773 418.996 95.3352 418.717 94.8011 418.161C94.267 417.592 94 416.916 94 416.132C94 415.348 94.267 414.678 94.8011 414.121C95.3352 413.553 95.9773 413.268 96.7273 413.268C97.4773 413.268 98.1193 413.553 98.6534 414.121C99.1875 414.678 99.4545 415.348 99.4545 416.132ZM140.364 396.219C140.364 398.162 140.114 399.832 139.614 401.23C139.125 402.628 138.477 403.793 137.67 404.724C136.875 405.645 136.023 406.378 135.114 406.923L132.864 403.719C133.341 403.355 133.886 402.895 134.5 402.338C135.125 401.781 135.665 401.02 136.119 400.054C136.585 399.077 136.818 397.798 136.818 396.219C136.818 394.105 136.307 392.361 135.284 390.986C134.261 389.611 132.659 388.923 130.477 388.923H125.159L125.159 389.264C125.636 389.56 126.227 389.98 126.932 390.526C127.625 391.06 128.244 391.832 128.79 392.844C129.324 393.844 129.591 395.196 129.591 396.901C129.591 399.014 129.091 400.912 128.091 402.594C127.091 404.264 125.636 405.588 123.727 406.565C121.818 407.531 119.5 408.014 116.773 408.014C114.091 408.014 111.756 407.543 109.767 406.599C107.767 405.656 106.222 404.344 105.131 402.662C104.028 400.98 103.477 399.037 103.477 396.832C103.477 395.128 103.761 393.776 104.33 392.776C104.886 391.764 105.523 390.991 106.239 390.457C106.943 389.912 107.523 389.491 107.977 389.196V388.787H103.818V384.901H130.75C133 384.901 134.83 385.412 136.239 386.435C137.659 387.446 138.699 388.81 139.358 390.526C140.028 392.23 140.364 394.128 140.364 396.219ZM125.977 396.355C125.977 394.741 125.608 393.378 124.869 392.264C124.131 391.151 123.068 390.304 121.682 389.724C120.295 389.145 118.636 388.855 116.705 388.855C114.818 388.855 113.153 389.139 111.71 389.707C110.267 390.276 109.136 391.116 108.318 392.23C107.5 393.344 107.091 394.719 107.091 396.355C107.091 398.06 107.523 399.48 108.386 400.616C109.25 401.741 110.409 402.588 111.864 403.156C113.318 403.713 114.932 403.991 116.705 403.991C118.523 403.991 120.131 403.707 121.528 403.139C122.915 402.56 124.006 401.707 124.801 400.582C125.585 399.446 125.977 398.037 125.977 396.355ZM114.25 373.514H130V377.537H95.0909V373.514H107.909V373.173C106.557 372.56 105.483 371.639 104.688 370.412C103.881 369.173 103.477 367.526 103.477 365.469C103.477 363.685 103.835 362.122 104.551 360.781C105.256 359.44 106.341 358.401 107.807 357.662C109.261 356.912 111.114 356.537 113.364 356.537H130V360.56H113.636C111.557 360.56 109.949 361.099 108.813 362.179C107.665 363.247 107.091 364.73 107.091 366.628C107.091 367.946 107.369 369.128 107.926 370.173C108.483 371.207 109.295 372.026 110.364 372.628C111.432 373.219 112.727 373.514 114.25 373.514ZM103.818 337.791H107.227V351.359H103.818V337.791ZM97.5455 347.405V343.382H122.5C123.636 343.382 124.489 343.217 125.057 342.888C125.614 342.547 125.989 342.115 126.182 341.592C126.364 341.058 126.455 340.496 126.455 339.905C126.455 339.462 126.432 339.098 126.386 338.814C126.33 338.53 126.284 338.303 126.25 338.132L129.864 337.314C129.966 337.587 130.068 337.967 130.17 338.456C130.284 338.945 130.341 339.564 130.341 340.314C130.341 341.45 130.097 342.564 129.608 343.655C129.119 344.734 128.375 345.632 127.375 346.348C126.375 347.053 125.114 347.405 123.591 347.405H97.5455Z" fill="black"/>
</svg>
