<svg width="45" height="159" viewBox="0 0 45 159" fill="none" xmlns="http://www.w3.org/2000/svg">
<rect width="45" height="159" fill="#F7F0C2"/>
<path d="M26 103.821V104.744L18.7273 102.074V101.165L26 98.4943V99.4176L19.8778 101.591V101.648L26 103.821ZM23.1591 103.48V99.7585H23.9403V103.48H23.1591ZM20.5455 95.0462H21.2557V97.9865H20.5455V95.0462ZM26 97.1058H19.7926C19.4801 97.1058 19.2197 97.0324 19.0114 96.8857C18.803 96.7389 18.6468 96.5483 18.5426 96.3139C18.4384 96.0795 18.3864 95.8321 18.3864 95.5717C18.3864 95.3658 18.4029 95.1977 18.4361 95.0675C18.4692 94.9373 18.5 94.8402 18.5284 94.7763L19.2528 95.0178C19.2386 95.0604 19.2209 95.1196 19.1996 95.1953C19.1783 95.2687 19.1676 95.3658 19.1676 95.4865C19.1676 95.7635 19.2375 95.9635 19.3771 96.0866C19.5168 96.2074 19.7216 96.2678 19.9915 96.2678H26V97.1058ZM20.5455 91.4995H21.2557V94.3262H20.5455V91.4995ZM19.2386 93.5023V92.6642H24.4375C24.6742 92.6642 24.8518 92.6299 24.9702 92.5613C25.0862 92.4902 25.1643 92.4003 25.2045 92.2914C25.2424 92.1801 25.2614 92.0629 25.2614 91.9398C25.2614 91.8475 25.2566 91.7717 25.2472 91.7125C25.2353 91.6533 25.2259 91.606 25.2188 91.5705L25.9716 91.4C25.9929 91.4569 26.0142 91.5362 26.0355 91.638C26.0592 91.7398 26.071 91.8688 26.071 92.025C26.071 92.2618 26.0201 92.4938 25.9183 92.7211C25.8165 92.946 25.6615 93.133 25.4531 93.2821C25.2448 93.4289 24.982 93.5023 24.6648 93.5023H19.2386ZM26.1136 88.0105C26.1136 88.536 25.9976 88.9894 25.7656 89.3706C25.5312 89.7493 25.2045 90.0417 24.7855 90.2477C24.3641 90.4513 23.8741 90.5531 23.3153 90.5531C22.7566 90.5531 22.2642 90.4513 21.8381 90.2477C21.4096 90.0417 21.0758 89.7553 20.8366 89.3883C20.5952 89.019 20.4744 88.5881 20.4744 88.0957C20.4744 87.8116 20.5218 87.5311 20.6165 87.2541C20.7112 86.9771 20.8651 86.725 21.0781 86.4977C21.2888 86.2704 21.5682 86.0893 21.9162 85.9544C22.2642 85.8194 22.6927 85.752 23.2017 85.752H23.5568V89.9565H22.8324V86.6042C22.5246 86.6042 22.25 86.6658 22.0085 86.7889C21.767 86.9096 21.5765 87.0824 21.4368 87.3074C21.2971 87.5299 21.2273 87.7927 21.2273 88.0957C21.2273 88.4295 21.3101 88.7183 21.4759 88.9622C21.6392 89.2037 21.8523 89.3895 22.1151 89.5197C22.3778 89.6499 22.6596 89.715 22.9602 89.715H23.4432C23.8551 89.715 24.2043 89.644 24.4908 89.502C24.7749 89.3575 24.9915 89.1575 25.1406 88.9018C25.2874 88.6461 25.3608 88.349 25.3608 88.0105C25.3608 87.7903 25.33 87.5914 25.2685 87.4139C25.2045 87.234 25.1098 87.0789 24.9844 86.9487C24.8565 86.8185 24.6979 86.7179 24.5085 86.6468L24.7358 85.8372C25.0104 85.9224 25.2519 86.0656 25.4602 86.2669C25.6662 86.4681 25.8272 86.7167 25.9432 87.0126C26.0568 87.3085 26.1136 87.6412 26.1136 88.0105ZM26 84.4771H20.5455V83.6674H21.3693V83.6106C21.0994 83.5112 20.8804 83.3313 20.7124 83.0708C20.5443 82.8104 20.4602 82.5169 20.4602 82.1902C20.4602 82.1286 20.4614 82.0517 20.4638 81.9593C20.4661 81.867 20.4697 81.7972 20.4744 81.7498H21.3267C21.3196 81.7782 21.3089 81.8433 21.2947 81.9451C21.2782 82.0446 21.2699 82.1499 21.2699 82.2612C21.2699 82.5263 21.3255 82.7631 21.4368 82.9714C21.5457 83.1774 21.6972 83.3407 21.8913 83.4615C22.0831 83.5798 22.3021 83.639 22.5483 83.639H26V84.4771ZM22.7188 79.9183H26V80.7564H20.5455V79.9467H21.3977V79.8757C21.1207 79.7479 20.8982 79.5537 20.7301 79.2933C20.5597 79.0329 20.4744 78.6967 20.4744 78.2848C20.4744 77.9155 20.5502 77.5923 20.7017 77.3153C20.8509 77.0384 21.0781 76.8229 21.3835 76.669C21.6866 76.5152 22.0701 76.4382 22.5341 76.4382H26V77.2763H22.5909C22.1624 77.2763 21.8286 77.3875 21.5895 77.6101C21.348 77.8326 21.2273 78.138 21.2273 78.5263C21.2273 78.7938 21.2853 79.0329 21.4013 79.2436C21.5173 79.4519 21.6866 79.6165 21.9091 79.7372C22.1316 79.858 22.4015 79.9183 22.7188 79.9183ZM26.1136 72.6909C26.1136 73.1833 25.9964 73.6154 25.7621 73.987C25.5277 74.3564 25.1998 74.6452 24.7784 74.8535C24.357 75.0595 23.8646 75.1625 23.3011 75.1625C22.733 75.1625 22.237 75.0595 21.8132 74.8535C21.3894 74.6452 21.0604 74.3564 20.826 73.987C20.5916 73.6154 20.4744 73.1833 20.4744 72.6909C20.4744 72.1984 20.5916 71.7676 20.826 71.3983C21.0604 71.0266 21.3894 70.7377 21.8132 70.5318C22.237 70.3234 22.733 70.2193 23.3011 70.2193C23.8646 70.2193 24.357 70.3234 24.7784 70.5318C25.1998 70.7377 25.5277 71.0266 25.7621 71.3983C25.9964 71.7676 26.1136 72.1984 26.1136 72.6909ZM25.3608 72.6909C25.3608 72.3168 25.2649 72.0091 25.0732 71.7676C24.8814 71.5261 24.6293 71.3474 24.3168 71.2314C24.0043 71.1154 23.6657 71.0574 23.3011 71.0574C22.9366 71.0574 22.5968 71.1154 22.282 71.2314C21.9671 71.3474 21.7126 71.5261 21.5185 71.7676C21.3243 72.0091 21.2273 72.3168 21.2273 72.6909C21.2273 73.0649 21.3243 73.3727 21.5185 73.6142C21.7126 73.8556 21.9671 74.0344 22.282 74.1504C22.5968 74.2664 22.9366 74.3244 23.3011 74.3244C23.6657 74.3244 24.0043 74.2664 24.3168 74.1504C24.6293 74.0344 24.8814 73.8556 25.0732 73.6142C25.2649 73.3727 25.3608 73.0649 25.3608 72.6909ZM26.1136 66.7241C26.1136 67.2165 25.9964 67.6486 25.7621 68.0202C25.5277 68.3896 25.1998 68.6784 24.7784 68.8867C24.357 69.0927 23.8646 69.1957 23.3011 69.1957C22.733 69.1957 22.237 69.0927 21.8132 68.8867C21.3894 68.6784 21.0604 68.3896 20.826 68.0202C20.5916 67.6486 20.4744 67.2165 20.4744 66.7241C20.4744 66.2317 20.5916 65.8008 20.826 65.4315C21.0604 65.0598 21.3894 64.771 21.8132 64.565C22.237 64.3567 22.733 64.2525 23.3011 64.2525C23.8646 64.2525 24.357 64.3567 24.7784 64.565C25.1998 64.771 25.5277 65.0598 25.7621 65.4315C25.9964 65.8008 26.1136 66.2317 26.1136 66.7241ZM25.3608 66.7241C25.3608 66.35 25.2649 66.0423 25.0732 65.8008C24.8814 65.5593 24.6293 65.3806 24.3168 65.2646C24.0043 65.1486 23.6657 65.0906 23.3011 65.0906C22.9366 65.0906 22.5968 65.1486 22.282 65.2646C21.9671 65.3806 21.7126 65.5593 21.5185 65.8008C21.3243 66.0423 21.2273 66.35 21.2273 66.7241C21.2273 67.0981 21.3243 67.4059 21.5185 67.6474C21.7126 67.8888 21.9671 68.0676 22.282 68.1836C22.5968 68.2996 22.9366 68.3576 23.3011 68.3576C23.6657 68.3576 24.0043 68.2996 24.3168 68.1836C24.6293 68.0676 24.8814 67.8888 25.0732 67.6474C25.2649 67.4059 25.3608 67.0981 25.3608 66.7241ZM22.7188 62.1351H26V62.9732H20.5455V62.1635H21.3977V62.0925C21.1207 61.9647 20.8982 61.7705 20.7301 61.5101C20.5597 61.2497 20.4744 60.9135 20.4744 60.5016C20.4744 60.1323 20.5502 59.8091 20.7017 59.5321C20.8509 59.2551 21.0781 59.0397 21.3835 58.8858C21.6866 58.7319 22.0701 58.655 22.5341 58.655H26V59.4931H22.5909C22.1624 59.4931 21.8286 59.6043 21.5895 59.8269C21.348 60.0494 21.2273 60.3548 21.2273 60.7431C21.2273 61.0106 21.2853 61.2497 21.4013 61.4604C21.5173 61.6687 21.6866 61.8333 21.9091 61.954C22.1316 62.0748 22.4015 62.1351 22.7188 62.1351Z" fill="black"/>
</svg>
