<svg width="45" height="159" viewBox="0 0 45 159" fill="none" xmlns="http://www.w3.org/2000/svg">
<rect width="45" height="159" fill="#DADADA"/>
<path d="M26 90.875V93.1193H18.7273V90.7756C18.7273 90.0701 18.8729 89.4664 19.1641 88.9645C19.4529 88.4626 19.8684 88.0779 20.4105 87.8104C20.9503 87.5429 21.5966 87.4091 22.3494 87.4091C23.107 87.4091 23.7592 87.544 24.3061 87.8139C24.8506 88.0838 25.2696 88.4768 25.5632 88.9929C25.8544 89.509 26 90.1364 26 90.875ZM25.2188 92.2386V90.9318C25.2188 90.3305 25.1027 89.8321 24.8707 89.4368C24.6387 89.0414 24.3085 88.7467 23.88 88.5526C23.4515 88.3584 22.9413 88.2614 22.3494 88.2614C21.7623 88.2614 21.2569 88.3572 20.8331 88.549C20.407 88.7408 20.0803 89.0272 19.853 89.4084C19.6233 89.7895 19.5085 90.2642 19.5085 90.8324V92.2386H25.2188ZM26.1278 84.4403C26.1278 84.786 26.0627 85.0997 25.9325 85.3814C25.8 85.6631 25.6094 85.8868 25.3608 86.0526C25.1098 86.2183 24.8068 86.3011 24.4517 86.3011C24.1392 86.3011 23.8859 86.2396 23.6918 86.1165C23.4953 85.9934 23.3414 85.8288 23.2301 85.6229C23.1188 85.4169 23.036 85.1896 22.9815 84.9411C22.9247 84.6901 22.8797 84.438 22.8466 84.1847C22.804 83.8532 22.772 83.5845 22.7507 83.3786C22.727 83.1702 22.688 83.0187 22.6335 82.924C22.5791 82.8269 22.4844 82.7784 22.3494 82.7784H22.321C21.9706 82.7784 21.6984 82.8743 21.5043 83.0661C21.3101 83.2554 21.2131 83.5431 21.2131 83.929C21.2131 84.3291 21.3007 84.6428 21.4759 84.87C21.651 85.0973 21.8381 85.2571 22.0369 85.3494L21.7528 86.1449C21.4214 86.0028 21.1634 85.8134 20.9787 85.5767C20.7917 85.3376 20.6615 85.0772 20.5881 84.7955C20.5123 84.5114 20.4744 84.232 20.4744 83.9574C20.4744 83.7822 20.4957 83.581 20.5384 83.3537C20.5786 83.1241 20.6626 82.9027 20.7905 82.6896C20.9183 82.4742 21.1113 82.2955 21.3693 82.1534C21.6274 82.0114 21.973 81.9403 22.4062 81.9403H26V82.7784H25.2614V82.821C25.3797 82.8778 25.5064 82.9725 25.6413 83.1051C25.7763 83.2377 25.8911 83.4141 25.9858 83.6342C26.0805 83.8544 26.1278 84.1231 26.1278 84.4403ZM25.375 84.3125C25.375 83.9811 25.3099 83.7017 25.1797 83.4744C25.0495 83.2448 24.8814 83.072 24.6754 82.956C24.4695 82.8376 24.2528 82.7784 24.0256 82.7784H23.2585C23.3011 82.8139 23.3402 82.892 23.3757 83.0128C23.4089 83.1312 23.4384 83.2685 23.4645 83.4247C23.4882 83.5786 23.5095 83.7289 23.5284 83.8757C23.545 84.0201 23.5592 84.1373 23.571 84.2273C23.5994 84.4451 23.6456 84.6487 23.7095 84.8381C23.7711 85.0251 23.8646 85.1766 23.9901 85.2926C24.1132 85.4062 24.2812 85.4631 24.4943 85.4631C24.7855 85.4631 25.0057 85.3554 25.1548 85.1399C25.3016 84.9221 25.375 84.6463 25.375 84.3125ZM26 79.1749L20.5455 80.8368V79.9561L24.7216 78.7772V78.7203L20.5455 77.5556V76.6607L24.7074 75.5101V75.4533L20.5455 74.2743V73.3936L26 75.0556V75.8794L21.8097 77.0726V77.1578L26 78.351V79.1749ZM22.7188 71.4476H26V72.2857H20.5455V71.476H21.3977V71.405C21.1207 71.2772 20.8982 71.083 20.7301 70.8226C20.5597 70.5622 20.4744 70.226 20.4744 69.8141C20.4744 69.4448 20.5502 69.1216 20.7017 68.8446C20.8509 68.5676 21.0781 68.3522 21.3835 68.1983C21.6866 68.0444 22.0701 67.9675 22.5341 67.9675H26V68.8056H22.5909C22.1624 68.8056 21.8286 68.9168 21.5895 69.1394C21.348 69.3619 21.2273 69.6673 21.2273 70.0556C21.2273 70.3231 21.2853 70.5622 21.4013 70.7729C21.5173 70.9812 21.6866 71.1458 21.9091 71.2665C22.1316 71.3873 22.4015 71.4476 22.7188 71.4476Z" fill="black"/>
</svg>
