<svg width="45" height="159" viewBox="0 0 45 159" fill="none" xmlns="http://www.w3.org/2000/svg">
<rect width="45" height="159" fill="#D7E7BF"/>
<path d="M18.7273 99.1193V98.0682L24.7642 95.5966V95.5114L18.7273 93.0398V91.9886H26V92.8125H20.4744V92.8835L26 95.1562V95.9517L20.4744 98.2244V98.2955H26V99.1193H18.7273ZM26.1136 88.1206C26.1136 88.613 25.9964 89.045 25.7621 89.4167C25.5277 89.786 25.1998 90.0749 24.7784 90.2832C24.357 90.4892 23.8646 90.5922 23.3011 90.5922C22.733 90.5922 22.237 90.4892 21.8132 90.2832C21.3894 90.0749 21.0604 89.786 20.826 89.4167C20.5916 89.045 20.4744 88.613 20.4744 88.1206C20.4744 87.6281 20.5916 87.1973 20.826 86.8279C21.0604 86.4563 21.3894 86.1674 21.8132 85.9615C22.237 85.7531 22.733 85.649 23.3011 85.649C23.8646 85.649 24.357 85.7531 24.7784 85.9615C25.1998 86.1674 25.5277 86.4563 25.7621 86.8279C25.9964 87.1973 26.1136 87.6281 26.1136 88.1206ZM25.3608 88.1206C25.3608 87.7465 25.2649 87.4387 25.0732 87.1973C24.8814 86.9558 24.6293 86.777 24.3168 86.661C24.0043 86.545 23.6657 86.487 23.3011 86.487C22.9366 86.487 22.5968 86.545 22.282 86.661C21.9671 86.777 21.7126 86.9558 21.5185 87.1973C21.3243 87.4387 21.2273 87.7465 21.2273 88.1206C21.2273 88.4946 21.3243 88.8024 21.5185 89.0439C21.7126 89.2853 21.9671 89.4641 22.282 89.5801C22.5968 89.6961 22.9366 89.7541 23.3011 89.7541C23.6657 89.7541 24.0043 89.6961 24.3168 89.5801C24.6293 89.4641 24.8814 89.2853 25.0732 89.0439C25.2649 88.8024 25.3608 88.4946 25.3608 88.1206ZM26 84.3697H20.5455V83.56H21.3693V83.5032C21.0994 83.4038 20.8804 83.2238 20.7124 82.9634C20.5443 82.703 20.4602 82.4094 20.4602 82.0827C20.4602 82.0212 20.4614 81.9442 20.4638 81.8519C20.4661 81.7596 20.4697 81.6897 20.4744 81.6424H21.3267C21.3196 81.6708 21.3089 81.7359 21.2947 81.8377C21.2782 81.9371 21.2699 82.0425 21.2699 82.1538C21.2699 82.4189 21.3255 82.6557 21.4368 82.864C21.5457 83.07 21.6972 83.2333 21.8913 83.354C22.0831 83.4724 22.3021 83.5316 22.5483 83.5316H26V84.3697ZM22.7188 79.8109H26V80.649H20.5455V79.8393H21.3977V79.7683C21.1207 79.6404 20.8982 79.4463 20.7301 79.1859C20.5597 78.9255 20.4744 78.5893 20.4744 78.1774C20.4744 77.8081 20.5502 77.4849 20.7017 77.2079C20.8509 76.9309 21.0781 76.7155 21.3835 76.5616C21.6866 76.4077 22.0701 76.3308 22.5341 76.3308H26V77.1689H22.5909C22.1624 77.1689 21.8286 77.2801 21.5895 77.5027C21.348 77.7252 21.2273 78.0306 21.2273 78.4189C21.2273 78.6864 21.2853 78.9255 21.4013 79.1362C21.5173 79.3445 21.6866 79.5091 21.9091 79.6298C22.1316 79.7505 22.4015 79.8109 22.7188 79.8109ZM26 74.7994H20.5455V73.9613H26V74.7994ZM19.6364 74.3732C19.6364 74.5366 19.5807 74.6774 19.4695 74.7958C19.3582 74.9118 19.2244 74.9698 19.0682 74.9698C18.9119 74.9698 18.7782 74.9118 18.6669 74.7958C18.5556 74.6774 18.5 74.5366 18.5 74.3732C18.5 74.2099 18.5556 74.0702 18.6669 73.9542C18.7782 73.8358 18.9119 73.7766 19.0682 73.7766C19.2244 73.7766 19.3582 73.8358 19.4695 73.9542C19.5807 74.0702 19.6364 74.2099 19.6364 74.3732ZM22.7188 71.5882H26V72.4263H20.5455V71.6167H21.3977V71.5456C21.1207 71.4178 20.8982 71.2237 20.7301 70.9632C20.5597 70.7028 20.4744 70.3667 20.4744 69.9547C20.4744 69.5854 20.5502 69.2623 20.7017 68.9853C20.8509 68.7083 21.0781 68.4928 21.3835 68.339C21.6866 68.1851 22.0701 68.1081 22.5341 68.1081H26V68.9462H22.5909C22.1624 68.9462 21.8286 69.0575 21.5895 69.28C21.348 69.5025 21.2273 69.8079 21.2273 70.1962C21.2273 70.4637 21.2853 70.7028 21.4013 70.9135C21.5173 71.1219 21.6866 71.2864 21.9091 71.4071C22.1316 71.5279 22.4015 71.5882 22.7188 71.5882ZM28.1591 64.375C28.1591 64.7798 28.107 65.1278 28.0028 65.419C27.901 65.7102 27.7661 65.9529 27.598 66.147C27.4323 66.3388 27.2547 66.4915 27.0653 66.6051L26.5966 65.9375C26.696 65.8617 26.8097 65.7659 26.9375 65.6499C27.0677 65.5339 27.1802 65.3752 27.2749 65.174C27.3719 64.9704 27.4205 64.7041 27.4205 64.375C27.4205 63.9347 27.3139 63.5713 27.1009 63.2848C26.8878 62.9983 26.554 62.8551 26.0994 62.8551H24.9915V62.9261C25.0909 62.9877 25.214 63.0753 25.3608 63.1889C25.5052 63.3002 25.6342 63.4612 25.7479 63.6719C25.8591 63.8802 25.9148 64.1619 25.9148 64.517C25.9148 64.9574 25.8106 65.3527 25.6023 65.7031C25.3939 66.0511 25.0909 66.3269 24.6932 66.5305C24.2955 66.7318 23.8125 66.8324 23.2443 66.8324C22.6856 66.8324 22.1991 66.7341 21.7848 66.5376C21.3681 66.3411 21.0462 66.0677 20.8189 65.7173C20.5893 65.367 20.4744 64.9621 20.4744 64.5028C20.4744 64.1477 20.5336 63.866 20.652 63.6577C20.768 63.447 20.9006 63.286 21.0497 63.1747C21.1965 63.0611 21.3172 62.9735 21.4119 62.9119V62.8267H20.5455V62.017H26.1563C26.625 62.017 27.0062 62.1236 27.2997 62.3366C27.5956 62.5473 27.8123 62.8314 27.9496 63.1889C28.0893 63.544 28.1591 63.9394 28.1591 64.375ZM25.1619 64.4034C25.1619 64.0672 25.085 63.7831 24.9311 63.5511C24.7772 63.3191 24.5559 63.1428 24.267 63.022C23.9782 62.9013 23.6326 62.8409 23.2301 62.8409C22.8371 62.8409 22.4903 62.9001 22.1896 63.0185C21.889 63.1368 21.6534 63.312 21.483 63.544C21.3125 63.776 21.2273 64.0625 21.2273 64.4034C21.2273 64.7585 21.3172 65.0545 21.4972 65.2912C21.6771 65.5256 21.9186 65.7019 22.2216 65.8203C22.5246 65.9363 22.8608 65.9943 23.2301 65.9943C23.6089 65.9943 23.9439 65.9351 24.2351 65.8168C24.5239 65.696 24.7512 65.5185 24.9169 65.2841C25.0803 65.0473 25.1619 64.7538 25.1619 64.4034Z" fill="black"/>
</svg>
