<svg width="45" height="159" viewBox="0 0 45 159" fill="none" xmlns="http://www.w3.org/2000/svg">
<rect width="45" height="159" fill="#FA9CA7"/>
<path d="M18.7273 89.3523H26V90.2045L20.2898 94.1676V94.2386H26V95.1193H18.7273V94.267L24.4517 90.2898V90.2188H18.7273V89.3523ZM26 87.7037H20.5455V86.8656H26V87.7037ZM19.6364 87.2775C19.6364 87.4409 19.5807 87.5817 19.4695 87.7001C19.3582 87.8161 19.2244 87.8741 19.0682 87.8741C18.9119 87.8741 18.7782 87.8161 18.6669 87.7001C18.5556 87.5817 18.5 87.4409 18.5 87.2775C18.5 87.1142 18.5556 86.9745 18.6669 86.8585C18.7782 86.7401 18.9119 86.6809 19.0682 86.6809C19.2244 86.6809 19.3582 86.7401 19.4695 86.8585C19.5807 86.9745 19.6364 87.1142 19.6364 87.2775ZM28.1591 83.1289C28.1591 83.5337 28.107 83.8817 28.0028 84.1729C27.901 84.4641 27.7661 84.7068 27.598 84.9009C27.4323 85.0927 27.2547 85.2454 27.0653 85.359L26.5966 84.6914C26.696 84.6156 26.8097 84.5198 26.9375 84.4038C27.0677 84.2878 27.1802 84.1291 27.2749 83.9279C27.3719 83.7243 27.4205 83.458 27.4205 83.1289C27.4205 82.6886 27.3139 82.3252 27.1009 82.0387C26.8878 81.7522 26.554 81.609 26.0994 81.609H24.9915V81.68C25.0909 81.7416 25.214 81.8292 25.3608 81.9428C25.5052 82.0541 25.6342 82.2151 25.7479 82.4258C25.8591 82.6341 25.9148 82.9158 25.9148 83.271C25.9148 83.7113 25.8106 84.1067 25.6023 84.457C25.3939 84.805 25.0909 85.0808 24.6932 85.2844C24.2955 85.4857 23.8125 85.5863 23.2443 85.5863C22.6856 85.5863 22.1991 85.488 21.7848 85.2915C21.3681 85.0951 21.0462 84.8216 20.8189 84.4712C20.5893 84.1209 20.4744 83.716 20.4744 83.2567C20.4744 82.9016 20.5336 82.6199 20.652 82.4116C20.768 82.2009 20.9006 82.0399 21.0497 81.9286C21.1965 81.815 21.3172 81.7274 21.4119 81.6658V81.5806H20.5455V80.771H26.1562C26.625 80.771 27.0062 80.8775 27.2997 81.0906C27.5956 81.3013 27.8123 81.5853 27.9496 81.9428C28.0893 82.2979 28.1591 82.6933 28.1591 83.1289ZM25.1619 83.1573C25.1619 82.8211 25.085 82.5371 24.9311 82.305C24.7772 82.073 24.5559 81.8967 24.267 81.7759C23.9782 81.6552 23.6326 81.5948 23.2301 81.5948C22.8371 81.5948 22.4903 81.654 22.1896 81.7724C21.889 81.8907 21.6534 82.0659 21.483 82.2979C21.3125 82.5299 21.2273 82.8164 21.2273 83.1573C21.2273 83.5124 21.3172 83.8084 21.4972 84.0451C21.6771 84.2795 21.9186 84.4558 22.2216 84.5742C22.5246 84.6902 22.8608 84.7482 23.2301 84.7482C23.6089 84.7482 23.9439 84.689 24.2351 84.5707C24.5239 84.4499 24.7512 84.2724 24.9169 84.038C25.0803 83.8013 25.1619 83.5077 25.1619 83.1573ZM22.7188 78.3988H26V79.2369H18.7273V78.3988H21.3977V78.3278C21.116 78.1999 20.8923 78.0082 20.7266 77.7525C20.5585 77.4944 20.4744 77.1512 20.4744 76.7227C20.4744 76.351 20.549 76.0254 20.6982 75.7461C20.8449 75.4667 21.071 75.2501 21.3764 75.0962C21.6795 74.94 22.0653 74.8619 22.5341 74.8619H26V75.6999H22.5909C22.1577 75.6999 21.8227 75.8124 21.5859 76.0373C21.3468 76.2598 21.2273 76.5688 21.2273 76.9641C21.2273 77.2388 21.2853 77.485 21.4013 77.7028C21.5173 77.9182 21.6866 78.0887 21.9091 78.2141C22.1316 78.3372 22.4015 78.3988 22.7188 78.3988ZM20.5455 70.9565H21.2557V73.7832H20.5455V70.9565ZM19.2386 72.9593V72.1213H24.4375C24.6742 72.1213 24.8518 72.0869 24.9702 72.0183C25.0862 71.9473 25.1643 71.8573 25.2045 71.7484C25.2424 71.6371 25.2614 71.5199 25.2614 71.3968C25.2614 71.3045 25.2566 71.2288 25.2472 71.1696C25.2353 71.1104 25.2259 71.063 25.2188 71.0275L25.9716 70.8571C25.9929 70.9139 26.0142 70.9932 26.0355 71.095C26.0592 71.1968 26.071 71.3258 26.071 71.4821C26.071 71.7188 26.0201 71.9508 25.9183 72.1781C25.8165 72.403 25.6615 72.59 25.4531 72.7392C25.2448 72.8859 24.982 72.9593 24.6648 72.9593H19.2386Z" fill="black"/>
</svg>
