<svg width="23" height="25" viewBox="0 0 23 25" fill="none" xmlns="http://www.w3.org/2000/svg">
<path d="M9.25265 0C8.38367 0 7.68161 0.698242 7.68161 1.5625C7.68161 2.42676 8.38367 3.125 9.25265 3.125H10.0382V4.80469C5.14341 5.55664 1.39746 9.76562 1.39746 14.8438C1.39746 20.4541 5.9682 25 11.6092 25C17.2502 25 21.821 20.4541 21.821 14.8438C21.821 12.8027 21.2171 10.9033 20.1763 9.31641L21.3595 8.13965C21.9732 7.5293 21.9732 6.53809 21.3595 5.92773C20.7458 5.31738 19.7491 5.31738 19.1355 5.92773L18.075 6.98242C16.6954 5.85938 15.0213 5.08789 13.1802 4.80469V3.125H13.9658C14.8347 3.125 15.5368 2.42676 15.5368 1.5625C15.5368 0.698242 14.8347 0 13.9658 0H11.6092H9.25265ZM12.7875 9.375V15.625C12.7875 16.2744 12.2622 16.7969 11.6092 16.7969C10.9562 16.7969 10.4309 16.2744 10.4309 15.625V9.375C10.4309 8.72559 10.9562 8.20312 11.6092 8.20312C12.2622 8.20312 12.7875 8.72559 12.7875 9.375Z" fill="white" fill-opacity="0.85"/>
</svg>
